<?xml version="1.0" encoding="UTF-8"?>
<svg width="43px" height="43px" viewBox="0 0 43 43" version="1.1" xmlns="http://www.w3.org/2000/svg" xmlns:xlink="http://www.w3.org/1999/xlink">
    <g stroke="none" stroke-width="1" fill="none" fill-rule="evenodd">
        <rect x="0.5" y="0.5" width="42" height="42" rx="4" fill="#000"/>
        <path d="M28.977 13.816c.974 0 2.052.521 2.827 1.456-.07.054-1.69 1.007-1.69 3.006 0 2.324 1.981 3.113 2 3.113-.019.049-.31 1.087-1.032 2.153-.62.932-1.265 1.864-2.278 1.864-1.013 0-1.265-.62-2.43-.62-1.245 0-1.516.639-2.43.639-1.013 0-1.748-1.007-2.431-2.017-1.477-2.191-2.587-6.195-.987-8.872.774-1.3 2.142-2.114 3.636-2.114 1.13 0 2.2.756 2.897.756.678 0 1.923-.775 3.038-.775zm-2.549-1.533c-.542.678-1.42 1.2-2.278 1.2-.116-.717.194-1.474.62-1.98.542-.64 1.477-1.103 2.238-1.142.097.736-.194 1.494-.58 1.922z" fill="#FFF"/>
    </g>
</svg>