<svg xmlns="http://www.w3.org/2000/svg"  viewBox="0 0 48 48" width="48px" height="48px"><path d="M 31.919922 1.0722656 C 29.589922 1.2312656 26.864437 2.7175312 25.273438 4.6445312 C 23.832438 6.3985312 22.637516 9.0043906 23.103516 11.525391 C 25.644516 11.606391 28.273781 10.092953 29.800781 8.1269531 C 31.228781 6.2939531 32.312922 3.7092656 31.919922 1.0722656 z M 33.169922 11.300781 C 29.195922 11.300781 27.515766 13.193359 24.759766 13.193359 C 21.918766 13.193359 19.760219 11.306641 16.324219 11.306641 C 12.951219 11.306641 9.3578906 13.359422 7.0878906 16.857422 C 3.8778906 21.791422 4.4241875 31.063609 9.6171875 38.974609 C 11.474188 41.794609 13.954359 44.971 17.193359 45 C 20.077359 45.029 20.890781 43.165484 24.800781 43.146484 C 28.710781 43.114484 29.454937 45.018141 32.335938 44.994141 C 35.574938 44.970141 38.193828 41.444141 40.048828 38.619141 C 41.376828 36.596141 41.87225 35.572203 42.90625 33.283203 C 35.40125 30.444203 34.195047 19.833672 41.623047 15.763672 C 39.352047 12.937672 36.174922 11.300781 33.169922 11.300781 z"/></svg>